<svg width="64" height="64" viewBox="0 0 64 64" xmlns="http://www.w3.org/2000/svg" role="img" aria-label="GitHub">
  <circle cx="32" cy="32" r="30" fill="#181717"/>
  <path fill="#fff" d="M32 13.7A18.6 18.6 0 0 0 26.1 50c.9.2 1.3-.4 1.3-.9v-3.2c-5.1 1.1-6.2-2.2-6.2-2.2-.8-2.1-2-2.7-2-2.7-1.7-1.1.1-1.1.1-1.1 1.8.1 2.8 1.9 2.8 1.9 1.6 2.8 4.2 2 5.2 1.5.2-1.2.6-2 1.1-2.5-4.1-.5-8.4-2-8.4-9.1 0-2 .7-3.7 1.9-5-.2-.5-.8-2.4.2-5 0 0 1.5-.5 5.1 1.9A17.4 17.4 0 0 1 32 23c1.6 0 3.2.2 4.7.6 3.6-2.4 5.1-1.9 5.1-1.9 1 2.6.4 4.5.2 5a7.2 7.2 0 0 1 1.9 5c0 7.1-4.3 8.6-8.4 9.1.7.6 1.3 1.7 1.3 3.5v5.1c0 .5.3 1.1 1.3.9A18.6 18.6 0 0 0 32 13.7Z"/>
</svg>
