<svg width="720" height="820" viewBox="0 0 720 820" fill="none" xmlns="http://www.w3.org/2000/svg">
  <rect width="720" height="820" rx="36" fill="#101827"/>
  <path d="M0 620C135 555 221 658 350 601C492 538 548 396 720 442V820H0V620Z" fill="#12334C"/>
  <path d="M0 688C138 624 216 725 354 667C475 616 566 520 720 559V820H0V688Z" fill="#0E574F"/>
  <circle cx="540" cy="156" r="94" fill="#19D3B5" fill-opacity="0.22"/>
  <circle cx="166" cy="200" r="62" fill="#4EA4FF" fill-opacity="0.22"/>
  <path d="M178 496C200 390 264 322 361 322C459 322 520 390 542 496L561 586C572 637 533 686 481 686H241C189 686 150 637 161 586L178 496Z" fill="#E9F4FF"/>
  <path d="M215 564C235 463 287 405 361 405C436 405 487 463 507 564L522 640C526 662 509 682 487 682H235C213 682 196 662 200 640L215 564Z" fill="#121B2A"/>
  <circle cx="361" cy="262" r="112" fill="#D8E8F5"/>
  <path d="M249 253C259 159 314 103 389 103C476 103 530 170 522 260C488 229 438 212 376 212C319 212 276 227 249 253Z" fill="#172236"/>
  <path d="M250 251C277 216 321 198 379 198C438 198 488 217 523 253C517 173 462 112 389 112C313 112 260 166 250 251Z" fill="#233452"/>
  <circle cx="322" cy="270" r="10" fill="#172236"/>
  <circle cx="404" cy="270" r="10" fill="#172236"/>
  <path d="M327 320C346 336 377 336 396 320" stroke="#172236" stroke-width="12" stroke-linecap="round"/>
  <path d="M180 158H256" stroke="#19D3B5" stroke-width="14" stroke-linecap="round"/>
  <path d="M464 648H565" stroke="#19D3B5" stroke-width="14" stroke-linecap="round"/>
  <path d="M505 681H604" stroke="#4EA4FF" stroke-width="14" stroke-linecap="round"/>
  <path d="M115 551H190" stroke="#4EA4FF" stroke-width="14" stroke-linecap="round"/>
</svg>
