<svg width="64" height="64" viewBox="0 0 64 64" xmlns="http://www.w3.org/2000/svg" role="img" aria-label="WhatsApp">
  <circle cx="32" cy="32" r="30" fill="#25D366"/>
  <path fill="#fff" d="M47.9 16.2A22.4 22.4 0 0 0 12.7 43l-3 11 11.3-3a22.4 22.4 0 0 0 26.9-34.8ZM32.2 50a18.2 18.2 0 0 1-9.3-2.5l-.7-.4-6.7 1.8 1.8-6.5-.4-.7A18.1 18.1 0 1 1 32.2 50Zm10-13.6c-.5-.3-3.2-1.6-3.7-1.8-.5-.2-.9-.3-1.3.3-.4.5-1.4 1.8-1.8 2.1-.3.4-.7.4-1.3.1-.5-.3-2.3-.9-4.4-2.7-1.6-1.4-2.7-3.2-3-3.7-.3-.5 0-.8.3-1.1l1-1.2c.3-.4.4-.6.6-1 .2-.4.1-.7 0-1l-1.7-4.1c-.4-1-.8-.9-1.2-.9h-1c-.4 0-1 .1-1.5.7-.5.5-2 1.9-2 4.7s2 5.5 2.3 5.8c.3.4 4 6.1 9.7 8.6 1.4.6 2.4.9 3.3 1.2 1.4.4 2.6.4 3.6.2 1.1-.2 3.2-1.3 3.7-2.6.5-1.3.5-2.4.4-2.6-.2-.2-.5-.4-1-.7Z"/>
</svg>
